<?xml version="1.0" encoding="UTF-8"?>
<svg width="400" height="400" viewBox="0 0 400 400" xmlns="http://www.w3.org/2000/svg">
  <defs>
    <linearGradient id="gradPurple" x1="0%" y1="0%" x2="100%" y2="100%">
      <stop offset="0%" stop-color="#8B5CF6" />
      <stop offset="100%" stop-color="#7C3AED" />
    </linearGradient>
    <linearGradient id="gradFuchsia" x1="0%" y1="0%" x2="100%" y2="100%">
      <stop offset="0%" stop-color="#D946EF" />
      <stop offset="100%" stop-color="#C026D3" />
    </linearGradient>
    <filter id="glow" x="-50%" y="-50%" width="200%" height="200%">
      <feGaussianBlur stdDeviation="4" result="blur" />
      <feComposite in="SourceGraphic" in2="blur" operator="over" />
    </filter>
  </defs>
  
  <!-- Background -->
  <circle cx="200" cy="200" r="180" fill="#0F172A" opacity="0.9" />
  <circle cx="200" cy="200" r="160" fill="#1E293B" opacity="0.6" />
  
  <!-- Community Circle -->
  <g filter="url(#glow)">
    <circle cx="200" cy="200" r="95" fill="#0F172A" stroke="url(#gradPurple)" stroke-width="2" opacity="0.8" />
    
    <!-- Central Icon -->
    <g transform="translate(0, -30)">
      <circle cx="200" cy="200" r="25" fill="#0F172A" stroke="url(#gradFuchsia)" stroke-width="2" />
      <circle cx="200" cy="185" r="10" fill="url(#gradFuchsia)" />
      <path d="M200,195 L200,220 M185,205 L215,205" stroke="url(#gradFuchsia)" stroke-width="3" />
    </g>
    
    <!-- Community Members -->
    <g transform="translate(-60, 10)">
      <circle cx="170" cy="150" r="20" fill="#0F172A" stroke="#D946EF" stroke-width="2" />
      <circle cx="170" cy="140" r="8" fill="#D946EF" />
      <path d="M170,148 L170,165 M160,155 L180,155" stroke="#D946EF" stroke-width="2" />
      <!-- Emotion -->
      <path d="M164,170 C164,165 176,165 176,170" stroke="#D946EF" stroke-width="1.5" fill="none" />
    </g>
    
    <g transform="translate(60, 10)">
      <circle cx="230" cy="150" r="20" fill="#0F172A" stroke="#8B5CF6" stroke-width="2" />
      <circle cx="230" cy="140" r="8" fill="#8B5CF6" />
      <path d="M230,148 L230,165 M220,155 L240,155" stroke="#8B5CF6" stroke-width="2" />
      <!-- Emotion -->
      <path d="M224,170 C224,165 236,165 236,170" stroke="#8B5CF6" stroke-width="1.5" fill="none" />
    </g>
    
    <g transform="translate(-50, 70)">
      <circle cx="160" cy="210" r="20" fill="#0F172A" stroke="#A855F7" stroke-width="2" />
      <circle cx="160" cy="200" r="8" fill="#A855F7" />
      <path d="M160,208 L160,225 M150,215 L170,215" stroke="#A855F7" stroke-width="2" />
      <!-- Emotion -->
      <path d="M154,230 L166,230" stroke="#A855F7" stroke-width="1.5" fill="none" />
    </g>
    
    <g transform="translate(50, 70)">
      <circle cx="240" cy="210" r="20" fill="#0F172A" stroke="#9333EA" stroke-width="2" />
      <circle cx="240" cy="200" r="8" fill="#9333EA" />
      <path d="M240,208 L240,225 M230,215 L250,215" stroke="#9333EA" stroke-width="2" />
      <!-- Emotion -->
      <path d="M234,230 C234,235 246,235 246,230" stroke="#9333EA" stroke-width="1.5" fill="none" transform="rotate(180, 240, 232)" />
    </g>
    
    <g transform="translate(0, 100)">
      <circle cx="200" cy="260" r="20" fill="#0F172A" stroke="#6D28D9" stroke-width="2" />
      <circle cx="200" cy="250" r="8" fill="#6D28D9" />
      <path d="M200,258 L200,275 M190,265 L210,265" stroke="#6D28D9" stroke-width="2" />
      <!-- Emotion -->
      <path d="M194,280 C194,275 206,275 206,280" stroke="#6D28D9" stroke-width="1.5" fill="none" />
    </g>
  </g>
  
  <!-- Connecting Lines -->
  <g opacity="0.7">
    <!-- Member Connections -->
    <path d="M170,150 L200,170" stroke="url(#gradFuchsia)" stroke-width="1.5" stroke-dasharray="4,2">
      <animate attributeName="opacity" values="0.7;0.9;0.7" dur="4s" repeatCount="indefinite" />
    </path>
    <path d="M230,150 L200,170" stroke="url(#gradPurple)" stroke-width="1.5" stroke-dasharray="4,2">
      <animate attributeName="opacity" values="0.7;0.9;0.7" dur="3.5s" repeatCount="indefinite" />
    </path>
    <path d="M160,210 L200,170" stroke="url(#gradFuchsia)" stroke-width="1.5" stroke-dasharray="4,2">
      <animate attributeName="opacity" values="0.7;0.9;0.7" dur="5s" repeatCount="indefinite" />
    </path>
    <path d="M240,210 L200,170" stroke="url(#gradPurple)" stroke-width="1.5" stroke-dasharray="4,2">
      <animate attributeName="opacity" values="0.7;0.9;0.7" dur="4.5s" repeatCount="indefinite" />
    </path>
    <path d="M200,260 L200,170" stroke="url(#gradFuchsia)" stroke-width="1.5" stroke-dasharray="4,2">
      <animate attributeName="opacity" values="0.7;0.9;0.7" dur="3s" repeatCount="indefinite" />
    </path>
    
    <!-- Cross-Community Connections -->
    <path d="M170,150 L230,150" stroke="url(#gradPurple)" stroke-width="1" stroke-dasharray="3,2" opacity="0.3">
      <animate attributeName="opacity" values="0.3;0.6;0.3" dur="6s" repeatCount="indefinite" />
    </path>
    <path d="M160,210 L240,210" stroke="url(#gradPurple)" stroke-width="1" stroke-dasharray="3,2" opacity="0.3">
      <animate attributeName="opacity" values="0.3;0.6;0.3" dur="7s" repeatCount="indefinite" />
    </path>
    <path d="M170,150 L240,210" stroke="url(#gradFuchsia)" stroke-width="1" stroke-dasharray="3,2" opacity="0.3">
      <animate attributeName="opacity" values="0.3;0.6;0.3" dur="8s" repeatCount="indefinite" />
    </path>
    <path d="M230,150 L160,210" stroke="url(#gradFuchsia)" stroke-width="1" stroke-dasharray="3,2" opacity="0.3">
      <animate attributeName="opacity" values="0.3;0.6;0.3" dur="7.5s" repeatCount="indefinite" />
    </path>
    <path d="M170,150 L200,260" stroke="url(#gradPurple)" stroke-width="1" stroke-dasharray="3,2" opacity="0.3">
      <animate attributeName="opacity" values="0.3;0.6;0.3" dur="6.5s" repeatCount="indefinite" />
    </path>
    <path d="M230,150 L200,260" stroke="url(#gradPurple)" stroke-width="1" stroke-dasharray="3,2" opacity="0.3">
      <animate attributeName="opacity" values="0.3;0.6;0.3" dur="5.5s" repeatCount="indefinite" />
    </path>
    <path d="M160,210 L200,260" stroke="url(#gradFuchsia)" stroke-width="1" stroke-dasharray="3,2" opacity="0.3">
      <animate attributeName="opacity" values="0.3;0.6;0.3" dur="8.5s" repeatCount="indefinite" />
    </path>
    <path d="M240,210 L200,260" stroke="url(#gradFuchsia)" stroke-width="1" stroke-dasharray="3,2" opacity="0.3">
      <animate attributeName="opacity" values="0.3;0.6;0.3" dur="9s" repeatCount="indefinite" />
    </path>
  </g>
  
  <!-- Support Symbols -->
  <g>
    <g transform="translate(-70, -70)">
      <circle cx="160" cy="120" r="15" fill="#0F172A" stroke="#A78BFA" stroke-width="1.5" opacity="0.8" />
      <path d="M155,120 Q160,125 165,120" stroke="#A78BFA" stroke-width="1.5" fill="none" />
    </g>
    
    <g transform="translate(70, -70)">
      <circle cx="240" cy="120" r="15" fill="#0F172A" stroke="#D946EF" stroke-width="1.5" opacity="0.8" />
      <path d="M235,120 L245,120 M240,115 L240,125" stroke="#D946EF" stroke-width="1.5" />
    </g>
    
    <g transform="translate(-90, 30)">
      <circle cx="120" cy="190" r="15" fill="#0F172A" stroke="#9333EA" stroke-width="1.5" opacity="0.8" />
      <path d="M115,190 L125,190" stroke="#9333EA" stroke-width="1.5" />
    </g>
    
    <g transform="translate(90, 30)">
      <circle cx="280" cy="190" r="15" fill="#0F172A" stroke="#8B5CF6" stroke-width="1.5" opacity="0.8" />
      <path d="M275,190 Q280,195 285,190" stroke="#8B5CF6" stroke-width="1.5" fill="none" />
    </g>
    
    <g transform="translate(-70, 130)">
      <circle cx="160" cy="300" r="15" fill="#0F172A" stroke="#7C3AED" stroke-width="1.5" opacity="0.8" />
      <path d="M155,300 Q160,295 165,300" stroke="#7C3AED" stroke-width="1.5" fill="none" transform="rotate(180, 160, 300)" />
    </g>
    
    <g transform="translate(70, 130)">
      <circle cx="240" cy="300" r="15" fill="#0F172A" stroke="#C026D3" stroke-width="1.5" opacity="0.8" />
      <path d="M235,300 L245,300 M240,295 L240,305" stroke="#C026D3" stroke-width="1.5" />
    </g>
  </g>
  
  <!-- Growth Rings -->
  <g opacity="0.4">
    <circle cx="200" cy="200" r="120" fill="none" stroke="url(#gradPurple)" stroke-width="1" opacity="0.2">
      <animate attributeName="r" values="120;125;120" dur="10s" repeatCount="indefinite" />
      <animate attributeName="opacity" values="0.2;0.05;0.2" dur="10s" repeatCount="indefinite" />
    </circle>
    <circle cx="200" cy="200" r="140" fill="none" stroke="url(#gradFuchsia)" stroke-width="0.8" opacity="0.15">
      <animate attributeName="r" values="140;145;140" dur="15s" repeatCount="indefinite" />
      <animate attributeName="opacity" values="0.15;0.03;0.15" dur="15s" repeatCount="indefinite" />
    </circle>
  </g>
  
  <!-- Interactive Particles -->
  <g>
    <circle cx="170" cy="170" r="2" fill="white" opacity="0.7">
      <animate attributeName="cx" values="170;200;170" dur="8s" repeatCount="indefinite" />
      <animate attributeName="cy" values="170;200;170" dur="8s" repeatCount="indefinite" />
    </circle>
    <circle cx="230" cy="170" r="2" fill="white" opacity="0.7">
      <animate attributeName="cx" values="230;200;230" dur="7s" repeatCount="indefinite" />
      <animate attributeName="cy" values="170;200;170" dur="7s" repeatCount="indefinite" />
    </circle>
    <circle cx="180" cy="230" r="2" fill="white" opacity="0.7">
      <animate attributeName="cx" values="180;200;180" dur="9s" repeatCount="indefinite" />
      <animate attributeName="cy" values="230;200;230" dur="9s" repeatCount="indefinite" />
    </circle>
    <circle cx="220" cy="230" r="2" fill="white" opacity="0.7">
      <animate attributeName="cx" values="220;200;220" dur="6s" repeatCount="indefinite" />
      <animate attributeName="cy" values="230;200;230" dur="6s" repeatCount="indefinite" />
    </circle>
  </g>
</svg>