<?xml version="1.0" encoding="UTF-8"?>
<svg width="400" height="400" viewBox="0 0 400 400" xmlns="http://www.w3.org/2000/svg">
  <defs>
    <linearGradient id="gradEmerald" x1="0%" y1="0%" x2="100%" y2="100%">
      <stop offset="0%" stop-color="#10B981" />
      <stop offset="100%" stop-color="#0D9488" />
    </linearGradient>
    <linearGradient id="gradPulse" x1="0%" y1="0%" x2="100%" y2="100%">
      <stop offset="0%" stop-color="#10B981" stop-opacity="0.7" />
      <stop offset="100%" stop-color="#0D9488" stop-opacity="0" />
    </linearGradient>
    <filter id="glow" x="-50%" y="-50%" width="200%" height="200%">
      <feGaussianBlur stdDeviation="4" result="blur" />
      <feComposite in="SourceGraphic" in2="blur" operator="over" />
    </filter>
  </defs>
  
  <!-- Background -->
  <circle cx="200" cy="200" r="180" fill="#0F172A" opacity="0.9" />
  <circle cx="200" cy="200" r="160" fill="#1E293B" opacity="0.6" />
  
  <!-- Matching Animation Central -->
  <g filter="url(#glow)">
    <circle cx="200" cy="200" r="60" fill="#0F172A" stroke="url(#gradEmerald)" stroke-width="3" opacity="0.9" />
    
    <!-- Matching Icon -->
    <path d="M170,200 L185,215 L230,170" stroke="url(#gradEmerald)" stroke-width="5" fill="none" stroke-linecap="round" stroke-linejoin="round" />
    
    <!-- Animated Rings -->
    <circle cx="200" cy="200" r="80" stroke="url(#gradEmerald)" stroke-width="2" fill="none" opacity="0.5">
      <animate attributeName="r" values="80;90;80" dur="4s" repeatCount="indefinite" />
      <animate attributeName="opacity" values="0.5;0.2;0.5" dur="4s" repeatCount="indefinite" />
    </circle>
    <circle cx="200" cy="200" r="100" stroke="url(#gradEmerald)" stroke-width="1.5" fill="none" opacity="0.3">
      <animate attributeName="r" values="100;110;100" dur="5s" repeatCount="indefinite" />
      <animate attributeName="opacity" values="0.3;0.1;0.3" dur="5s" repeatCount="indefinite" />
    </circle>
  </g>
  
  <!-- Network of Profiles -->
  <g>
    <!-- Profile Nodes -->
    <g transform="translate(-10, -50)">
      <circle cx="100" cy="150" r="25" fill="#0F172A" stroke="#F87171" stroke-width="2" />
      <circle cx="100" cy="150" r="15" fill="#F87171" opacity="0.3" />
      <!-- Person Silhouette -->
      <circle cx="100" cy="140" r="8" fill="#F87171" />
      <path d="M100,148 L100,165 M90,155 L110,155" stroke="#F87171" stroke-width="2" />
      <!-- Emotion: Sad -->
      <path d="M94,170 C94,175 106,175 106,170" stroke="#F87171" stroke-width="1.5" fill="none" transform="rotate(180, 100, 172)" />
    </g>
    
    <g transform="translate(10, -50)">
      <circle cx="300" cy="150" r="25" fill="#0F172A" stroke="#F87171" stroke-width="2" />
      <circle cx="300" cy="150" r="15" fill="#F87171" opacity="0.3" />
      <!-- Person Silhouette -->
      <circle cx="300" cy="140" r="8" fill="#F87171" />
      <path d="M300,148 L300,165 M290,155 L310,155" stroke="#F87171" stroke-width="2" />
      <!-- Emotion: Sad -->
      <path d="M294,170 C294,175 306,175 306,170" stroke="#F87171" stroke-width="1.5" fill="none" transform="rotate(180, 300, 172)" />
    </g>
    
    <g transform="translate(-30, 30)">
      <circle cx="120" cy="270" r="25" fill="#0F172A" stroke="#60A5FA" stroke-width="2" />
      <circle cx="120" cy="270" r="15" fill="#60A5FA" opacity="0.3" />
      <!-- Person Silhouette -->
      <circle cx="120" cy="260" r="8" fill="#60A5FA" />
      <path d="M120,268 L120,285 M110,275 L130,275" stroke="#60A5FA" stroke-width="2" />
      <!-- Emotion: Happy -->
      <path d="M114,290 C114,285 126,285 126,290" stroke="#60A5FA" stroke-width="1.5" fill="none" />
    </g>
    
    <g transform="translate(30, 30)">
      <circle cx="280" cy="270" r="25" fill="#0F172A" stroke="#60A5FA" stroke-width="2" />
      <circle cx="280" cy="270" r="15" fill="#60A5FA" opacity="0.3" />
      <!-- Person Silhouette -->
      <circle cx="280" cy="260" r="8" fill="#60A5FA" />
      <path d="M280,268 L280,285 M270,275 L290,275" stroke="#60A5FA" stroke-width="2" />
      <!-- Emotion: Happy -->
      <path d="M274,290 C274,285 286,285 286,290" stroke="#60A5FA" stroke-width="1.5" fill="none" />
    </g>
    
    <g transform="translate(-70, 0)">
      <circle cx="150" cy="200" r="25" fill="#0F172A" stroke="#FBBF24" stroke-width="2" />
      <circle cx="150" cy="200" r="15" fill="#FBBF24" opacity="0.3" />
      <!-- Person Silhouette -->
      <circle cx="150" cy="190" r="8" fill="#FBBF24" />
      <path d="M150,198 L150,215 M140,205 L160,205" stroke="#FBBF24" stroke-width="2" />
      <!-- Emotion: Neutral -->
      <path d="M144,220 L156,220" stroke="#FBBF24" stroke-width="1.5" fill="none" />
    </g>
    
    <g transform="translate(70, 0)">
      <circle cx="250" cy="200" r="25" fill="#0F172A" stroke="#FBBF24" stroke-width="2" />
      <circle cx="250" cy="200" r="15" fill="#FBBF24" opacity="0.3" />
      <!-- Person Silhouette -->
      <circle cx="250" cy="190" r="8" fill="#FBBF24" />
      <path d="M250,198 L250,215 M240,205 L260,205" stroke="#FBBF24" stroke-width="2" />
      <!-- Emotion: Neutral -->
      <path d="M244,220 L256,220" stroke="#FBBF24" stroke-width="1.5" fill="none" />
    </g>
  </g>
  
  <!-- Connection Lines -->
  <g>
    <!-- Connecting the same emotions -->
    <path d="M90,150 C90,100 310,100 310,150" stroke="#F87171" stroke-width="1.5" stroke-dasharray="4,2" opacity="0.7">
      <animate attributeName="opacity" values="0.7;0.9;0.7" dur="3s" repeatCount="indefinite" />
    </path>
    
    <path d="M90,270 C90,320 310,320 310,270" stroke="#60A5FA" stroke-width="1.5" stroke-dasharray="4,2" opacity="0.7">
      <animate attributeName="opacity" values="0.7;0.9;0.7" dur="3.5s" repeatCount="indefinite" />
    </path>
    
    <path d="M80,200 C80,160 320,160 320,200" stroke="#FBBF24" stroke-width="1.5" stroke-dasharray="4,2" opacity="0.7">
      <animate attributeName="opacity" values="0.7;0.9;0.7" dur="4s" repeatCount="indefinite" />
    </path>
  </g>
  
  <!-- Animated Particles -->
  <g>
    <circle cx="150" cy="150" r="3" fill="white" opacity="0.6">
      <animate attributeName="cx" values="150;180;150" dur="6s" repeatCount="indefinite" />
      <animate attributeName="cy" values="150;170;150" dur="6s" repeatCount="indefinite" />
    </circle>
    <circle cx="250" cy="150" r="3" fill="white" opacity="0.6">
      <animate attributeName="cx" values="250;220;250" dur="7s" repeatCount="indefinite" />
      <animate attributeName="cy" values="150;170;150" dur="7s" repeatCount="indefinite" />
    </circle>
    <circle cx="150" cy="250" r="3" fill="white" opacity="0.6">
      <animate attributeName="cx" values="150;180;150" dur="5s" repeatCount="indefinite" />
      <animate attributeName="cy" values="250;230;250" dur="5s" repeatCount="indefinite" />
    </circle>
    <circle cx="250" cy="250" r="3" fill="white" opacity="0.6">
      <animate attributeName="cx" values="250;220;250" dur="8s" repeatCount="indefinite" />
      <animate attributeName="cy" values="250;230;250" dur="8s" repeatCount="indefinite" />
    </circle>
  </g>
</svg>