<?xml version="1.0" encoding="UTF-8"?>
<svg width="400" height="400" viewBox="0 0 400 400" xmlns="http://www.w3.org/2000/svg">
  <defs>
    <linearGradient id="gradPurple" x1="0%" y1="0%" x2="100%" y2="100%">
      <stop offset="0%" stop-color="#4F46E5" />
      <stop offset="100%" stop-color="#9333EA" />
    </linearGradient>
    <linearGradient id="gradBlue" x1="0%" y1="0%" x2="100%" y2="100%">
      <stop offset="0%" stop-color="#3B82F6" />
      <stop offset="100%" stop-color="#2563EB" />
    </linearGradient>
    <filter id="glow" x="-50%" y="-50%" width="200%" height="200%">
      <feGaussianBlur stdDeviation="5" result="blur" />
      <feComposite in="SourceGraphic" in2="blur" operator="over" />
    </filter>
  </defs>
  
  <!-- Background Circles -->
  <circle cx="200" cy="200" r="170" fill="#0F172A" opacity="0.8" />
  <circle cx="200" cy="200" r="140" fill="#1E293B" opacity="0.6" />
  
  <!-- Central Connection Element -->
  <g filter="url(#glow)">
    <circle cx="200" cy="200" r="80" fill="url(#gradPurple)" opacity="0.6" />
    <circle cx="200" cy="200" r="60" fill="#1E293B" />
    
    <!-- People Silhouettes -->
    <g transform="translate(0, -25)">
      <!-- Left Person -->
      <circle cx="150" cy="200" r="20" fill="url(#gradBlue)" />
      <path d="M150,220 L150,260 M130,240 L170,240" stroke="url(#gradBlue)" stroke-width="6" stroke-linecap="round" />
      
      <!-- Right Person -->
      <circle cx="250" cy="200" r="20" fill="url(#gradPurple)" />
      <path d="M250,220 L250,260 M230,240 L270,240" stroke="url(#gradPurple)" stroke-width="6" stroke-linecap="round" />
      
      <!-- Connection Lines -->
      <path d="M170,200 C190,180 210,180 230,200" stroke="white" stroke-width="3" stroke-dasharray="4,2" opacity="0.8" />
      <path d="M170,210 C190,230 210,230 230,210" stroke="white" stroke-width="3" stroke-dasharray="4,2" opacity="0.8" />
    </g>
  </g>
  
  <!-- Emotion Symbols -->
  <g opacity="0.9">
    <circle cx="120" cy="120" r="12" fill="#F97316" />
    <path d="M114,120 L126,120 M120,114 L120,126" stroke="white" stroke-width="2" />
    
    <circle cx="280" cy="120" r="12" fill="#3B82F6" />
    <path d="M274,120 L286,120" stroke="white" stroke-width="2" />
    
    <circle cx="120" cy="280" r="12" fill="#10B981" />
    <path d="M114,280 C114,286 126,286 126,280" stroke="white" stroke-width="2" fill="none" />
    
    <circle cx="280" cy="280" r="12" fill="#EC4899" />
    <path d="M274,283 C274,277 286,277 286,283" stroke="white" stroke-width="2" fill="none" />
  </g>
  
  <!-- Pulsing Circles -->
  <circle cx="200" cy="200" r="100" stroke="url(#gradPurple)" stroke-width="2" fill="none" opacity="0.3">
    <animate attributeName="r" values="100;120;100" dur="4s" repeatCount="indefinite" />
    <animate attributeName="opacity" values="0.3;0.1;0.3" dur="4s" repeatCount="indefinite" />
  </circle>
  <circle cx="200" cy="200" r="110" stroke="url(#gradBlue)" stroke-width="1.5" fill="none" opacity="0.2">
    <animate attributeName="r" values="110;130;110" dur="5s" repeatCount="indefinite" />
    <animate attributeName="opacity" values="0.2;0.05;0.2" dur="5s" repeatCount="indefinite" />
  </circle>
  
  <!-- Animated Particles -->
  <g>
    <circle cx="160" cy="140" r="3" fill="white" opacity="0.8">
      <animate attributeName="cy" values="140;130;140" dur="2s" repeatCount="indefinite" />
    </circle>
    <circle cx="240" cy="140" r="3" fill="white" opacity="0.8">
      <animate attributeName="cy" values="140;150;140" dur="2.5s" repeatCount="indefinite" />
    </circle>
    <circle cx="180" cy="260" r="3" fill="white" opacity="0.8">
      <animate attributeName="cx" values="180;170;180" dur="3s" repeatCount="indefinite" />
    </circle>
    <circle cx="220" cy="260" r="3" fill="white" opacity="0.8">
      <animate attributeName="cx" values="220;230;220" dur="2.8s" repeatCount="indefinite" />
    </circle>
  </g>
</svg>