<?xml version="1.0" encoding="UTF-8"?>
<svg width="400" height="400" viewBox="0 0 400 400" xmlns="http://www.w3.org/2000/svg">
  <defs>
    <linearGradient id="gradOrange" x1="0%" y1="0%" x2="100%" y2="100%">
      <stop offset="0%" stop-color="#F97316" />
      <stop offset="100%" stop-color="#EA580C" />
    </linearGradient>
    <linearGradient id="gradAmber" x1="0%" y1="0%" x2="100%" y2="100%">
      <stop offset="0%" stop-color="#F59E0B" />
      <stop offset="100%" stop-color="#D97706" />
    </linearGradient>
    <radialGradient id="globeGrad" cx="50%" cy="50%" r="50%" fx="50%" fy="50%">
      <stop offset="0%" stop-color="#0F172A" />
      <stop offset="80%" stop-color="#0F172A" stop-opacity="0.3" />
      <stop offset="100%" stop-color="#0F172A" stop-opacity="0" />
    </radialGradient>
    <filter id="glow" x="-50%" y="-50%" width="200%" height="200%">
      <feGaussianBlur stdDeviation="4" result="blur" />
      <feComposite in="SourceGraphic" in2="blur" operator="over" />
    </filter>
  </defs>
  
  <!-- Background -->
  <circle cx="200" cy="200" r="180" fill="#0F172A" opacity="0.9" />
  <circle cx="200" cy="200" r="160" fill="#1E293B" opacity="0.6" />
  
  <!-- Global Map/Globe -->
  <g filter="url(#glow)">
    <!-- Globe Base -->
    <circle cx="200" cy="200" r="90" fill="#0F172A" stroke="url(#gradAmber)" stroke-width="2" opacity="0.8" />
    
    <!-- World Map Simplified -->
    <path d="M130,170 C140,160 150,160 160,170 C170,180 180,170 190,160 C200,150 220,150 230,160 C240,170 250,160 260,170" 
          stroke="url(#gradOrange)" stroke-width="1.5" fill="none" opacity="0.6" />
    <path d="M140,185 C150,180 160,180 170,190 C180,200 190,190 200,180 C210,170 220,170 230,180 C240,190 250,180 260,190" 
          stroke="url(#gradOrange)" stroke-width="1.5" fill="none" opacity="0.6" />
    <path d="M140,205 C150,200 170,210 180,220 C190,230 200,220 210,210 C220,200 240,210 250,220" 
          stroke="url(#gradOrange)" stroke-width="1.5" fill="none" opacity="0.6" />
    <path d="M150,225 C160,230 170,230 180,225 C190,220 210,220 220,225 C230,230 240,230 250,225" 
          stroke="url(#gradOrange)" stroke-width="1.5" fill="none" opacity="0.6" />
    
    <!-- Longitude/Latitude Lines -->
    <ellipse cx="200" cy="200" rx="90" ry="30" stroke="url(#gradAmber)" stroke-width="1" fill="none" opacity="0.4" />
    <ellipse cx="200" cy="200" rx="90" ry="60" stroke="url(#gradAmber)" stroke-width="1" fill="none" opacity="0.3" />
    <ellipse cx="200" cy="200" rx="70" ry="90" stroke="url(#gradAmber)" stroke-width="1" fill="none" opacity="0.3" transform="rotate(90, 200, 200)" />
    <ellipse cx="200" cy="200" rx="45" ry="90" stroke="url(#gradAmber)" stroke-width="1" fill="none" opacity="0.3" transform="rotate(90, 200, 200)" />
  </g>
  
  <!-- Emotion Hotspots -->
  <g>
    <!-- North America -->
    <g transform="translate(-40, -30)">
      <circle cx="160" cy="170" r="8" fill="#0F172A" stroke="#F87171" stroke-width="1.5">
        <animate attributeName="r" values="8;10;8" dur="3s" repeatCount="indefinite" />
        <animate attributeName="opacity" values="1;0.7;1" dur="3s" repeatCount="indefinite" />
      </circle>
      <path d="M154,173 C154,168 166,168 166,173" stroke="#F87171" stroke-width="1" fill="none" transform="rotate(180, 160, 171)" />
    </g>
    
    <!-- Europe -->
    <g transform="translate(20, -20)">
      <circle cx="230" cy="160" r="8" fill="#0F172A" stroke="#60A5FA" stroke-width="1.5">
        <animate attributeName="r" values="8;10;8" dur="4s" repeatCount="indefinite" />
        <animate attributeName="opacity" values="1;0.7;1" dur="4s" repeatCount="indefinite" />
      </circle>
      <path d="M224,163 C224,158 236,158 236,163" stroke="#60A5FA" stroke-width="1" fill="none" />
    </g>
    
    <!-- Asia -->
    <g transform="translate(30, 0)">
      <circle cx="250" cy="190" r="8" fill="#0F172A" stroke="#34D399" stroke-width="1.5">
        <animate attributeName="r" values="8;10;8" dur="3.5s" repeatCount="indefinite" />
        <animate attributeName="opacity" values="1;0.7;1" dur="3.5s" repeatCount="indefinite" />
      </circle>
      <path d="M244,190 L256,190" stroke="#34D399" stroke-width="1" fill="none" />
    </g>
    
    <!-- Africa -->
    <g transform="translate(0, 25)">
      <circle cx="220" cy="225" r="8" fill="#0F172A" stroke="#FBBF24" stroke-width="1.5">
        <animate attributeName="r" values="8;10;8" dur="5s" repeatCount="indefinite" />
        <animate attributeName="opacity" values="1;0.7;1" dur="5s" repeatCount="indefinite" />
      </circle>
      <path d="M214,228 C214,223 226,223 226,228" stroke="#FBBF24" stroke-width="1" fill="none" />
    </g>
    
    <!-- South America -->
    <g transform="translate(-30, 25)">
      <circle cx="170" cy="225" r="8" fill="#0F172A" stroke="#A78BFA" stroke-width="1.5">
        <animate attributeName="r" values="8;10;8" dur="4.5s" repeatCount="indefinite" />
        <animate attributeName="opacity" values="1;0.7;1" dur="4.5s" repeatCount="indefinite" />
      </circle>
      <path d="M164,225 L176,225" stroke="#A78BFA" stroke-width="1" fill="none" />
    </g>
    
    <!-- Australia -->
    <g transform="translate(35, 30)">
      <circle cx="255" cy="230" r="8" fill="#0F172A" stroke="#F472B6" stroke-width="1.5">
        <animate attributeName="r" values="8;10;8" dur="3.2s" repeatCount="indefinite" />
        <animate attributeName="opacity" values="1;0.7;1" dur="3.2s" repeatCount="indefinite" />
      </circle>
      <path d="M249,233 C249,228 261,228 261,233" stroke="#F472B6" stroke-width="1" fill="none" />
    </g>
  </g>
  
  <!-- Connecting Lines -->
  <g opacity="0.4">
    <!-- Connections Between Emotion Points -->
    <path d="M120,140 C150,130 180,140 200,160 C220,180 250,180 270,160" stroke="url(#gradAmber)" stroke-width="1" stroke-dasharray="3,2">
      <animate attributeName="opacity" values="0.4;0.7;0.4" dur="8s" repeatCount="indefinite" />
    </path>
    <path d="M130,260 C160,270 190,260 210,240 C230,220 260,220 280,240" stroke="url(#gradOrange)" stroke-width="1" stroke-dasharray="3,2">
      <animate attributeName="opacity" values="0.4;0.7;0.4" dur="7s" repeatCount="indefinite" />
    </path>
    <path d="M110,200 C140,210 180,190 220,160 C250,140 270,150 290,160" stroke="url(#gradAmber)" stroke-width="1" stroke-dasharray="3,2">
      <animate attributeName="opacity" values="0.4;0.7;0.4" dur="9s" repeatCount="indefinite" />
    </path>
    <path d="M110,200 C130,180 160,220 200,240 C240,260 270,240 290,200" stroke="url(#gradOrange)" stroke-width="1" stroke-dasharray="3,2">
      <animate attributeName="opacity" values="0.4;0.7;0.4" dur="10s" repeatCount="indefinite" />
    </path>
  </g>
  
  <!-- Orbital Ring -->
  <g opacity="0.8">
    <circle cx="200" cy="200" r="120" fill="none" stroke="url(#gradAmber)" stroke-width="1" opacity="0.3">
      <animate attributeName="r" values="120;125;120" dur="10s" repeatCount="indefinite" />
      <animate attributeName="opacity" values="0.3;0.1;0.3" dur="10s" repeatCount="indefinite" />
    </circle>
    
    <!-- Orbiting Elements -->
    <g>
      <circle cx="200" cy="80" r="5" fill="#F97316">
        <animateTransform attributeName="transform" type="rotate" from="0 200 200" to="360 200 200" dur="20s" repeatCount="indefinite" />
        <animate attributeName="opacity" values="0.8;0.4;0.8" dur="5s" repeatCount="indefinite" />
      </circle>
      <circle cx="200" cy="320" r="5" fill="#F97316">
        <animateTransform attributeName="transform" type="rotate" from="180 200 200" to="540 200 200" dur="20s" repeatCount="indefinite" />
        <animate attributeName="opacity" values="0.4;0.8;0.4" dur="5s" repeatCount="indefinite" />
      </circle>
      <circle cx="80" cy="200" r="5" fill="#F59E0B">
        <animateTransform attributeName="transform" type="rotate" from="270 200 200" to="630 200 200" dur="25s" repeatCount="indefinite" />
        <animate attributeName="opacity" values="0.6;0.3;0.6" dur="6s" repeatCount="indefinite" />
      </circle>
      <circle cx="320" cy="200" r="5" fill="#F59E0B">
        <animateTransform attributeName="transform" type="rotate" from="90 200 200" to="450 200 200" dur="25s" repeatCount="indefinite" />
        <animate attributeName="opacity" values="0.3;0.6;0.3" dur="6s" repeatCount="indefinite" />
      </circle>
    </g>
  </g>
  
  <!-- Data Particles -->
  <g>
    <circle cx="150" cy="150" r="2" fill="white" opacity="0.8">
      <animate attributeName="cx" values="150;200;150" dur="10s" repeatCount="indefinite" />
      <animate attributeName="cy" values="150;200;150" dur="10s" repeatCount="indefinite" />
      <animate attributeName="opacity" values="0.8;0.2;0.8" dur="10s" repeatCount="indefinite" />
    </circle>
    <circle cx="250" cy="150" r="2" fill="white" opacity="0.8">
      <animate attributeName="cx" values="250;200;250" dur="12s" repeatCount="indefinite" />
      <animate attributeName="cy" values="150;200;150" dur="12s" repeatCount="indefinite" />
      <animate attributeName="opacity" values="0.8;0.2;0.8" dur="12s" repeatCount="indefinite" />
    </circle>
    <circle cx="150" cy="250" r="2" fill="white" opacity="0.8">
      <animate attributeName="cx" values="150;200;150" dur="11s" repeatCount="indefinite" />
      <animate attributeName="cy" values="250;200;250" dur="11s" repeatCount="indefinite" />
      <animate attributeName="opacity" values="0.8;0.2;0.8" dur="11s" repeatCount="indefinite" />
    </circle>
    <circle cx="250" cy="250" r="2" fill="white" opacity="0.8">
      <animate attributeName="cx" values="250;200;250" dur="13s" repeatCount="indefinite" />
      <animate attributeName="cy" values="250;200;250" dur="13s" repeatCount="indefinite" />
      <animate attributeName="opacity" values="0.8;0.2;0.8" dur="13s" repeatCount="indefinite" />
    </circle>
  </g>
</svg>