<?xml version="1.0" encoding="UTF-8"?>
<svg width="400" height="400" viewBox="0 0 400 400" xmlns="http://www.w3.org/2000/svg">
  <defs>
    <linearGradient id="gradRose" x1="0%" y1="0%" x2="100%" y2="100%">
      <stop offset="0%" stop-color="#E11D48" />
      <stop offset="100%" stop-color="#BE185D" />
    </linearGradient>
    <linearGradient id="gradPink" x1="0%" y1="0%" x2="100%" y2="100%">
      <stop offset="0%" stop-color="#EC4899" />
      <stop offset="100%" stop-color="#DB2777" />
    </linearGradient>
    <linearGradient id="gradGold" x1="0%" y1="0%" x2="100%" y2="100%">
      <stop offset="0%" stop-color="#F59E0B" />
      <stop offset="100%" stop-color="#B45309" />
    </linearGradient>
    <filter id="glow" x="-50%" y="-50%" width="200%" height="200%">
      <feGaussianBlur stdDeviation="4" result="blur" />
      <feComposite in="SourceGraphic" in2="blur" operator="over" />
    </filter>
  </defs>
  
  <!-- Background -->
  <circle cx="200" cy="200" r="180" fill="#0F172A" opacity="0.9" />
  <circle cx="200" cy="200" r="160" fill="#1E293B" opacity="0.6" />
  
  <!-- Premium Badge/Crown -->
  <g filter="url(#glow)">
    <!-- Central Diamond -->
    <polygon points="200,120 225,150 200,180 175,150" fill="#0F172A" stroke="url(#gradGold)" stroke-width="3" />
    
    <!-- Crown Points -->
    <path d="M170,150 L185,120 L200,135 L215,120 L230,150" fill="none" stroke="url(#gradGold)" stroke-width="3" stroke-linejoin="round" />
    
    <!-- Crown Base -->
    <rect x="160" y="150" width="80" height="15" rx="4" fill="#0F172A" stroke="url(#gradGold)" stroke-width="3" />
    
    <!-- Gems on Crown -->
    <circle cx="185" cy="120" r="5" fill="url(#gradRose)" />
    <circle cx="215" cy="120" r="5" fill="url(#gradRose)" />
    <circle cx="200" cy="135" r="6" fill="url(#gradPink)" />
    
    <!-- Crown Gleam -->
    <path d="M195,125 L205,125" stroke="white" stroke-width="1.5" opacity="0.8" />
    <path d="M180,118 L190,118" stroke="white" stroke-width="1.5" opacity="0.8" />
    <path d="M210,118 L220,118" stroke="white" stroke-width="1.5" opacity="0.8" />
  </g>
  
  <!-- Premium Features Showcase -->
  <g>
    <!-- Feature 1: Private Chat -->
    <g transform="translate(-60, 40)">
      <circle cx="145" cy="200" r="30" fill="#0F172A" stroke="url(#gradRose)" stroke-width="2" />
      
      <!-- Chat Icon -->
      <path d="M130,190 L160,190 L160,210 L145,210 L135,220 L135,210 L130,210 Z" 
            fill="none" stroke="url(#gradRose)" stroke-width="1.5" />
      <path d="M138,195 L152,195 M138,200 L148,200 M138,205 L145,205" stroke="white" stroke-width="1" opacity="0.8" />
      
      <!-- Lock Icon -->
      <circle cx="160" cy="185" r="8" fill="#0F172A" stroke="url(#gradGold)" stroke-width="1.5" />
      <path d="M157,185 L163,185 M160,182 L160,188" stroke="url(#gradGold)" stroke-width="1.5" />
    </g>
    
    <!-- Feature 2: Advanced Analytics -->
    <g transform="translate(60, 40)">
      <circle cx="255" cy="200" r="30" fill="#0F172A" stroke="url(#gradRose)" stroke-width="2" />
      
      <!-- Graph Icon -->
      <path d="M235,210 L235,190 L245,180 L255,200 L265,190 L275,210" 
            fill="none" stroke="url(#gradRose)" stroke-width="1.5" />
      <path d="M235,210 L275,210" stroke="url(#gradRose)" stroke-width="1.5" />
      
      <!-- Stars for Premium -->
      <path d="M245,170 L247,175 L253,175 L248,178 L250,183 L245,180 L240,183 L242,178 L237,175 L243,175 Z" 
            fill="url(#gradGold)" opacity="0.9" />
    </g>
    
    <!-- Feature 3: Custom Themes -->
    <g transform="translate(-30, 110)">
      <circle cx="170" cy="240" r="30" fill="#0F172A" stroke="url(#gradPink)" stroke-width="2" />
      
      <!-- Color Palette Icon -->
      <circle cx="160" cy="230" r="5" fill="#F472B6" opacity="0.9" />
      <circle cx="175" cy="225" r="5" fill="#60A5FA" opacity="0.9" />
      <circle cx="185" cy="240" r="5" fill="#34D399" opacity="0.9" />
      <circle cx="170" cy="255" r="5" fill="#F97316" opacity="0.9" />
      <circle cx="155" cy="245" r="5" fill="#A78BFA" opacity="0.9" />
      
      <!-- Paintbrush -->
      <path d="M155,225 C160,220 165,220 170,225" stroke="url(#gradGold)" stroke-width="1.5" fill="none" />
    </g>
    
    <!-- Feature 4: AI Tools -->
    <g transform="translate(30, 110)">
      <circle cx="230" cy="240" r="30" fill="#0F172A" stroke="url(#gradPink)" stroke-width="2" />
      
      <!-- AI Brain Icon -->
      <path d="M220,230 C215,225 215,240 220,245 C225,250 235,250 240,245 C245,240 245,225 240,220 C235,215 225,215 220,220 Z" 
            fill="none" stroke="url(#gradPink)" stroke-width="1.5" />
      <path d="M220,230 L240,230 M215,240 L245,240" stroke="url(#gradPink)" stroke-width="1.5" />
      <path d="M230,225 L230,250" stroke="url(#gradPink)" stroke-width="1.5" />
      
      <!-- Premium Spark -->
      <circle cx="245" cy="225" r="5" fill="url(#gradGold)" opacity="0.9">
        <animate attributeName="opacity" values="0.9;0.5;0.9" dur="2s" repeatCount="indefinite" />
      </circle>
    </g>
  </g>
  
  <!-- Connecting Lines -->
  <g opacity="0.5">
    <path d="M145,240 L170,210" stroke="url(#gradRose)" stroke-width="1" stroke-dasharray="4,2">
      <animate attributeName="opacity" values="0.5;0.8;0.5" dur="4s" repeatCount="indefinite" />
    </path>
    <path d="M200,180 L145,200" stroke="url(#gradRose)" stroke-width="1" stroke-dasharray="4,2">
      <animate attributeName="opacity" values="0.5;0.8;0.5" dur="3s" repeatCount="indefinite" />
    </path>
    <path d="M200,180 L255,200" stroke="url(#gradRose)" stroke-width="1" stroke-dasharray="4,2">
      <animate attributeName="opacity" values="0.5;0.8;0.5" dur="3.5s" repeatCount="indefinite" />
    </path>
    <path d="M255,240 L230,210" stroke="url(#gradRose)" stroke-width="1" stroke-dasharray="4,2">
      <animate attributeName="opacity" values="0.5;0.8;0.5" dur="4.5s" repeatCount="indefinite" />
    </path>
    <path d="M170,240 L200,180" stroke="url(#gradPink)" stroke-width="1" stroke-dasharray="4,2">
      <animate attributeName="opacity" values="0.5;0.8;0.5" dur="5s" repeatCount="indefinite" />
    </path>
    <path d="M230,240 L200,180" stroke="url(#gradPink)" stroke-width="1" stroke-dasharray="4,2">
      <animate attributeName="opacity" values="0.5;0.8;0.5" dur="4.2s" repeatCount="indefinite" />
    </path>
  </g>
  
  <!-- Premium Particles -->
  <g>
    <circle cx="200" cy="200" r="70" fill="none" stroke="url(#gradGold)" stroke-width="1" opacity="0.3">
      <animate attributeName="r" values="70;80;70" dur="10s" repeatCount="indefinite" />
      <animate attributeName="opacity" values="0.3;0.1;0.3" dur="10s" repeatCount="indefinite" />
    </circle>
    
    <!-- Sparkling Effect -->
    <circle cx="170" cy="140" r="2" fill="white" opacity="0.8">
      <animate attributeName="opacity" values="0.8;0.1;0.8" dur="2s" repeatCount="indefinite" />
    </circle>
    <circle cx="230" cy="140" r="2" fill="white" opacity="0.1">
      <animate attributeName="opacity" values="0.1;0.8;0.1" dur="2.5s" repeatCount="indefinite" />
    </circle>
    <circle cx="150" cy="180" r="2" fill="white" opacity="0.1">
      <animate attributeName="opacity" values="0.1;0.8;0.1" dur="2.2s" repeatCount="indefinite" />
    </circle>
    <circle cx="250" cy="180" r="2" fill="white" opacity="0.8">
      <animate attributeName="opacity" values="0.8;0.1;0.8" dur="2.7s" repeatCount="indefinite" />
    </circle>
    <circle cx="180" cy="270" r="2" fill="white" opacity="0.8">
      <animate attributeName="opacity" values="0.8;0.1;0.8" dur="2.4s" repeatCount="indefinite" />
    </circle>
    <circle cx="220" cy="270" r="2" fill="white" opacity="0.1">
      <animate attributeName="opacity" values="0.1;0.8;0.1" dur="2.1s" repeatCount="indefinite" />
    </circle>
  </g>
</svg>