<?xml version="1.0" encoding="UTF-8"?>
<svg xmlns="http://www.w3.org/2000/svg" width="24" height="24" viewBox="0 0 24 24" fill="none" stroke="currentColor" stroke-width="2" stroke-linecap="round" stroke-linejoin="round">
  <path d="M17 6.1H3a2 2 0 0 0-2 2V20a2 2 0 0 0 2 2h14a2 2 0 0 0 2-2V8.1a2 2 0 0 0-2-2Z" fill="#c4b5fd" stroke="#a78bfa"/>
  <path d="M19 6.1V4a2 2 0 0 0-2-2H3a2 2 0 0 0-2 2" stroke="#a78bfa"/>
  <path d="M10 13a2 2 0 1 0 4 0 2 2 0 0 0-4 0" fill="#7c3aed" stroke="white"/>
  <path d="M5 16h14" stroke="white"/>
  <path d="M5 19h14" stroke="white"/>
</svg>